# xmcd
#
# Track frame offsets:
#	150
#	18052
#	35705
#	53826
#	70211
#	80691
#	92345
#	105672
#	118586
#	128367
#	141126
#	156698
#	177842
#	194037
#	211643
#	229987
#	240677
#	254231
#	270518
#	284178
#	307375
#	318749
#
# Disc length: 4440 seconds
#
# Revision: 0
# Processed by: cddbd v1.5.1PL0 Copyright (c) Steve Scherf et al.
# Submitted via: dBpowerAMP V4.0
#
DISCID=50115616
DTITLE=dalida - dalida
DYEAR=1900
DGENRE=
TTITLE0=La Mer
TTITLE1=Laiseer - moir danser
TTITLE2=Le temps des flerurs
TTITLE3=Les Gitans
TTITLE4=Merengue
TTITLE5=Mon Coeur est Fou
TTITLE6=Parle plus bas
TTITLE7=Parlez moi de lui
TTITLE8=Pepe
TTITLE9=Quand no na que lamour
TTITLE10=Romantica
TTITLE11=Soleil
TTITLE12=Ti amo
TTITLE13=Yalla Bina Yalla
TTITLE14=Parole - com Alain Delon
TTITLE15=El Cordobez
TTITLE16=Besame Mucho
TTITLE17=Lamour est mort
TTITLE18=Le Bateau
TTITLE19=Marlene Die
TTITLE20=Pianiste
TTITLE21=Monsieur
EXTD=
EXTT0=
EXTT1=
EXTT2=
EXTT3=
EXTT4=
EXTT5=
EXTT6=
EXTT7=
EXTT8=
EXTT9=
EXTT10=
EXTT11=
EXTT12=
EXTT13=
EXTT14=
EXTT15=
EXTT16=
EXTT17=
EXTT18=
EXTT19=
EXTT20=
EXTT21=
PLAYORDER=
